<svg width="51" height="51" viewBox="0 0 51 51" fill="none" xmlns="http://www.w3.org/2000/svg">
<g filter="url(#filter0_d_3664_21231)">
<rect x="36.9173" y="26.2503" width="25.8333" height="25.8333" rx="12.9167" transform="rotate(-180 36.9173 26.2503)" fill="white"/>
<rect x="36.9173" y="26.2503" width="25.8333" height="25.8333" rx="12.9167" transform="rotate(-180 36.9173 26.2503)" stroke="#E9E9F2" stroke-width="0.833333"/>
<path fill-rule="evenodd" clip-rule="evenodd" d="M19.9114 17.4228C20.5612 18.0726 21.2701 17.9314 21.5333 17.8488L21.5366 17.8478C21.5381 17.8473 21.5396 17.8466 21.5409 17.8458C21.5419 17.8452 21.5429 17.8445 21.5437 17.8437C21.5446 17.8428 21.5456 17.8418 21.5468 17.8406L21.566 17.8215C21.8377 17.5498 21.9735 17.414 22.0369 17.2628C22.1232 17.0567 22.1232 16.8247 22.0369 16.6186C21.9735 16.4674 21.8377 16.3316 21.566 16.0599L21.2743 15.7682C21.0026 15.4965 20.8668 15.3607 20.7156 15.2973C20.5095 15.211 20.2775 15.211 20.0714 15.2973C19.9202 15.3607 19.7844 15.4965 19.5127 15.7682L19.4936 15.7874C19.4924 15.7886 19.4914 15.7896 19.4905 15.7905C19.4897 15.7913 19.489 15.7923 19.4884 15.7933C19.4876 15.7946 19.4869 15.7961 19.4865 15.7976L19.4854 15.8009C19.4028 16.0641 19.2616 16.773 19.9114 17.4228ZM22.0207 13.2601C21.6907 13.5901 21.5257 13.7552 21.4639 13.9454C21.4095 14.1128 21.4095 14.2931 21.4639 14.4605C21.5257 14.6507 21.6907 14.8157 22.0207 15.1457L22.1885 15.3135C22.5185 15.6435 22.6835 15.8085 22.8737 15.8703C23.0411 15.9247 23.2214 15.9247 23.3888 15.8703C23.579 15.8085 23.7441 15.6435 24.0741 15.3135L28.2464 11.1411C28.2841 11.1035 28.3026 11.0848 28.3156 11.0707C28.3163 11.07 28.3167 11.0692 28.3168 11.0683C28.3198 11.0494 28.3231 11.0232 28.3294 10.9704L28.5534 9.10372C28.5745 8.92803 28.5861 8.82779 28.5883 8.75537C28.5885 8.75005 28.5842 8.74571 28.5788 8.74587C28.5064 8.74814 28.4062 8.75972 28.2305 8.78081L26.3638 9.00481C26.311 9.01115 26.2848 9.01437 26.2659 9.0174C26.265 9.01754 26.2642 9.01795 26.2635 9.01856C26.2494 9.03158 26.2307 9.05015 26.1931 9.08779L22.0207 13.2601ZM21.823 18.7724C21.4097 18.902 20.2489 19.1292 19.227 18.1072C18.205 17.0853 18.4322 15.9245 18.5618 15.5112C18.5736 15.4737 18.586 15.435 18.6156 15.3734C18.6391 15.3245 18.6796 15.2576 18.7121 15.2142C18.7543 15.1576 18.7927 15.1192 18.823 15.089C18.8248 15.0872 18.8265 15.0855 18.8283 15.0837L25.5086 8.40335C25.5134 8.3986 25.5183 8.39372 25.5232 8.38871C25.5778 8.33392 25.6465 8.26492 25.7291 8.21011C25.8009 8.16253 25.8786 8.12474 25.9603 8.09773C26.0545 8.06661 26.1512 8.05522 26.228 8.04619C26.235 8.04536 26.2418 8.04455 26.2485 8.04376L28.1328 7.81763C28.2844 7.79943 28.428 7.78218 28.5485 7.7784C28.6774 7.77437 28.8358 7.78248 28.9952 7.85433C29.2105 7.95136 29.3828 8.12374 29.4799 8.33902C29.5517 8.49843 29.5598 8.6568 29.5558 8.78567C29.552 8.90616 29.5348 9.04976 29.5166 9.20135L29.2904 11.0857C29.2896 11.0924 29.2888 11.0992 29.288 11.1062C29.279 11.183 29.2676 11.2797 29.2365 11.3739C29.2095 11.4556 29.1717 11.5333 29.1241 11.6051C29.0693 11.6877 29.0003 11.7564 28.9455 11.811C28.9405 11.8159 28.9356 11.8208 28.9309 11.8256L22.2505 18.5059C22.2487 18.5077 22.247 18.5094 22.2452 18.5112C22.215 18.5415 22.1766 18.5799 22.12 18.6222C22.0766 18.6546 22.0097 18.6951 21.9608 18.7186C21.8992 18.7482 21.8605 18.7606 21.823 18.7724Z" fill="#040509"/>
<rect x="36.9173" y="32.9163" width="25.8333" height="25.8333" rx="12.9167" transform="rotate(-180 36.9173 32.9163)" fill="white"/>
<rect x="36.9173" y="32.9163" width="25.8333" height="25.8333" rx="12.9167" transform="rotate(-180 36.9173 32.9163)" stroke="#E9E9F2" stroke-width="0.833333"/>
<path fill-rule="evenodd" clip-rule="evenodd" d="M21.9447 23.4983C22.7414 23.4983 23.3874 22.8523 23.3874 22.0556C23.3874 21.2588 22.7414 20.6128 21.9447 20.6128C21.1479 20.6128 20.502 21.2588 20.502 22.0556C20.502 22.8523 21.1479 23.4983 21.9447 23.4983ZM22.5584 22.0556C22.5584 22.3945 22.2836 22.6693 21.9447 22.6693C21.6057 22.6693 21.3309 22.3945 21.3309 22.0556C21.3309 21.7166 21.6057 21.4418 21.9447 21.4418C22.2836 21.4418 22.5584 21.7166 22.5584 22.0556Z" fill="#040509"/>
<path fill-rule="evenodd" clip-rule="evenodd" d="M24.0183 25.5547H23.9839C23.1474 25.5547 22.4963 25.5547 21.9726 25.5154C21.441 25.4755 21.0075 25.3935 20.6132 25.2115C19.8074 24.8398 19.1605 24.1929 18.7887 23.387C18.6068 22.9927 18.5247 22.5592 18.4848 22.0276C18.4455 21.504 18.4455 20.8528 18.4455 20.0163V19.9819C18.4455 19.1454 18.4455 18.4943 18.4848 17.9706C18.5247 17.4391 18.6068 17.0055 18.7887 16.6112C19.1192 15.8949 19.667 15.3042 20.3507 14.9206C20.3557 14.915 20.3609 14.9095 20.3663 14.9042C20.4365 14.834 20.5256 14.7942 20.6172 14.7849C21.0104 14.6043 21.4428 14.5226 21.9726 14.4829C22.4963 14.4436 23.1474 14.4436 23.9839 14.4436H24.0183C24.8548 14.4436 25.5059 14.4436 26.0296 14.4829C26.5611 14.5227 26.9947 14.6048 27.389 14.7867C28.1948 15.1585 28.8417 15.8054 29.2135 16.6112C29.3954 17.0055 29.4775 17.4391 29.5174 17.9706C29.5566 18.4943 29.5566 19.1454 29.5566 19.982V20.0163C29.5566 20.8528 29.5566 21.504 29.5174 22.0276C29.4775 22.5592 29.3954 22.9927 29.2135 23.387C28.8417 24.1929 28.1948 24.8398 27.389 25.2115C26.9947 25.3935 26.5611 25.4755 26.0296 25.5154C25.5059 25.5547 24.8548 25.5547 24.0183 25.5547ZM19.5558 16.9277C19.7894 16.4368 20.155 16.0236 20.6084 15.7325L22.1368 17.2608L21.9704 17.4271C21.7467 17.6509 21.5963 17.8008 21.4712 17.9071C21.3498 18.0101 21.2797 18.0474 21.2263 18.0648C21.0876 18.1099 20.9381 18.1099 20.7994 18.0648C20.7459 18.0474 20.6759 18.0101 20.5546 17.9071C20.4295 17.8009 20.2791 17.651 20.0554 17.4273L19.5558 16.9277ZM19.3115 18.0326C19.3157 17.9762 19.3204 17.922 19.3256 17.8699L19.4811 18.0254C19.6898 18.2341 19.8641 18.4084 20.018 18.5391C20.1786 18.6754 20.3442 18.7885 20.5432 18.8532C20.8484 18.9524 21.1772 18.9524 21.4825 18.8532C21.6815 18.7885 21.8471 18.6754 22.0077 18.539C22.1617 18.4083 22.3359 18.234 22.5447 18.0252L22.7273 17.8427L24.0164 19.0943C24.2253 19.2971 24.3998 19.4666 24.5538 19.5936C24.7145 19.7261 24.8797 19.8357 25.0773 19.8976C25.3806 19.9927 25.7061 19.9903 26.008 19.8908C26.2046 19.8259 26.3682 19.7139 26.5269 19.579C26.679 19.4498 26.851 19.2778 27.0569 19.0718L28.626 17.5027C28.6544 17.6563 28.6755 17.8303 28.6907 18.0326C28.7274 18.5217 28.7276 19.1418 28.7276 19.9991C28.7276 20.8564 28.7274 21.4766 28.6907 21.9656C28.6543 22.4504 28.5839 22.7729 28.4608 23.0397C28.1716 23.6665 27.6685 24.1696 27.0417 24.4588C26.7749 24.5819 26.4524 24.6524 25.9676 24.6887C25.4785 24.7254 24.8584 24.7257 24.0011 24.7257C23.1438 24.7257 22.5237 24.7254 22.0346 24.6887C21.5498 24.6524 21.2273 24.5819 20.9605 24.4588C20.3337 24.1696 19.8306 23.6665 19.5414 23.0397C19.4183 22.7729 19.3479 22.4504 19.3115 21.9656C19.2748 21.4766 19.2745 20.8564 19.2745 19.9991C19.2745 19.1418 19.2748 18.5217 19.3115 18.0326ZM27.0417 15.5395C27.5644 15.7806 28.0011 16.1706 28.2994 16.6569L26.4825 18.4738C26.2617 18.6946 26.1135 18.8424 25.9901 18.9473C25.8704 19.0489 25.8013 19.086 25.7483 19.1035C25.6111 19.1487 25.4631 19.1498 25.3253 19.1066C25.272 19.0899 25.2024 19.0539 25.0812 18.954C24.9563 18.851 24.8059 18.7054 24.5819 18.4879L23.0139 16.9655L21.436 15.3877C21.6059 15.3524 21.8015 15.327 22.0346 15.3095C22.5237 15.2728 23.1438 15.2726 24.0011 15.2726C24.8584 15.2726 25.4785 15.2728 25.9676 15.3095C26.4524 15.3459 26.7749 15.4164 27.0417 15.5395Z" fill="#040509"/>
<rect x="43.5833" y="32.9163" width="25.8333" height="25.8333" rx="12.9167" transform="rotate(-180 43.5833 32.9163)" fill="white"/>
<rect x="43.5833" y="32.9163" width="25.8333" height="25.8333" rx="12.9167" transform="rotate(-180 43.5833 32.9163)" stroke="#E9E9F2" stroke-width="0.833333"/>
<path fill-rule="evenodd" clip-rule="evenodd" d="M30.5603 25.5547C32.2175 25.5547 33.5609 24.2113 33.5609 22.554V20.4869C33.5609 18.8296 32.2175 17.4862 30.5603 17.4862C28.9031 17.4862 27.5596 18.8296 27.5596 20.4869V22.554C27.5596 24.2113 28.9031 25.5547 30.5603 25.5547ZM32.7276 22.554C32.7276 23.751 31.7573 24.7214 30.5603 24.7214C29.3633 24.7214 28.393 23.751 28.393 22.554V20.4869C28.393 19.2899 29.3633 18.3195 30.5603 18.3195C31.7573 18.3195 32.7276 19.2899 32.7276 20.4869V22.554Z" fill="#040509"/>
<path d="M34.278 20.4869C34.278 20.717 34.4645 20.9035 34.6947 20.9035C34.9248 20.9035 35.1113 20.717 35.1113 20.4869C35.1113 19.0573 34.4549 17.9146 33.5663 17.1371C32.8066 16.4723 31.8619 16.0604 30.977 15.9599V14.8021C30.977 14.572 30.7904 14.3854 30.5603 14.3854C30.3302 14.3854 30.1436 14.572 30.1436 14.8021V15.9599C29.2587 16.0604 28.314 16.4723 27.5543 17.1371C26.6657 17.9146 26.0093 19.0573 26.0093 20.4869C26.0093 20.717 26.1958 20.9035 26.4259 20.9035C26.656 20.9035 26.8426 20.717 26.8426 20.4869C26.8426 19.3324 27.3674 18.408 28.103 17.7643C28.8467 17.1136 29.7848 16.7692 30.5603 16.7692C31.3358 16.7692 32.2739 17.1136 33.0176 17.7643C33.7532 18.408 34.278 19.3324 34.278 20.4869Z" fill="#040509"/>
<rect x="44" y="40" width="40" height="40" rx="20" transform="rotate(-180 44 40)" fill="#4F0DA3"/>
<path d="M26.8743 27.917L28.166 26.6253L21.541 20.0003L28.166 13.3753L26.8743 12.0837L18.9993 20.0003L26.8743 27.917Z" fill="white"/>
</g>
<defs>
<filter id="filter0_d_3664_21231" x="-1.19209e-07" y="0" width="50.6667" height="50.6667" filterUnits="userSpaceOnUse" color-interpolation-filters="sRGB">
<feFlood flood-opacity="0" result="BackgroundImageFix"/>
<feColorMatrix in="SourceAlpha" type="matrix" values="0 0 0 0 0 0 0 0 0 0 0 0 0 0 0 0 0 0 127 0" result="hardAlpha"/>
<feOffset dx="1.33333" dy="5.33333"/>
<feGaussianBlur stdDeviation="2.66667"/>
<feComposite in2="hardAlpha" operator="out"/>
<feColorMatrix type="matrix" values="0 0 0 0 0 0 0 0 0 0 0 0 0 0 0 0 0 0 0.25 0"/>
<feBlend mode="normal" in2="BackgroundImageFix" result="effect1_dropShadow_3664_21231"/>
<feBlend mode="normal" in="SourceGraphic" in2="effect1_dropShadow_3664_21231" result="shape"/>
</filter>
</defs>
</svg>
