<svg width="40" height="40" viewBox="0 0 40 40" fill="none" xmlns="http://www.w3.org/2000/svg">
<path d="M33.4874 24.4192C33.2851 24.0779 33.2143 23.6745 33.2884 23.2847C33.3625 22.8949 33.5762 22.5456 33.8896 22.3022C34.203 22.0589 34.5944 21.9383 34.9904 21.9632C35.3864 21.988 35.7597 22.1565 36.0402 22.437C36.3207 22.7176 36.4892 23.0909 36.5141 23.4868C36.5389 23.8828 36.4183 24.2742 36.175 24.5876C35.9316 24.901 35.5823 25.1148 35.1925 25.1888C34.8028 25.2629 34.3993 25.1921 34.058 24.9898V24.9898L33.4942 25.1495C33.4711 25.1562 33.4466 25.1566 33.4233 25.1507C33.4 25.1447 33.3787 25.1326 33.3616 25.1156C33.3446 25.0985 33.3325 25.0773 33.3265 25.0539C33.3206 25.0306 33.321 25.0061 33.3277 24.983L33.4874 24.4192Z" stroke="white" stroke-width="0.326087" stroke-linecap="round" stroke-linejoin="round"/>
<path d="M18.38 36.1555C18.1777 35.8142 18.1069 35.4108 18.181 35.021C18.255 34.6312 18.4688 34.2819 18.7822 34.0386C19.0956 33.7952 19.487 33.6747 19.883 33.6995C20.2789 33.7243 20.6522 33.8928 20.9328 34.1733C21.2133 34.4539 21.3818 34.8272 21.4066 35.2232C21.4314 35.6191 21.3109 36.0105 21.0676 36.3239C20.8242 36.6373 20.4749 36.8511 20.0851 36.9251C19.6953 36.9992 19.2919 36.9284 18.9506 36.7261V36.7261L18.3868 36.8858C18.3637 36.8925 18.3392 36.893 18.3159 36.887C18.2925 36.881 18.2712 36.8689 18.2542 36.8519C18.2372 36.8349 18.2251 36.8136 18.2191 36.7903C18.2132 36.7669 18.2136 36.7424 18.2203 36.7193L18.38 36.1555Z" stroke="white" stroke-width="0.326087" stroke-linecap="round" stroke-linejoin="round"/>
<path d="M7.14648 22.6357H4.15735C4.08232 22.6357 4.02148 22.6966 4.02148 22.7716V24.9455C4.02148 25.0206 4.08232 25.0814 4.15735 25.0814H7.14648C7.22152 25.0814 7.28235 25.0206 7.28235 24.9455V22.7716C7.28235 22.6966 7.22152 22.6357 7.14648 22.6357Z" stroke="white" stroke-width="0.326087" stroke-linecap="round" stroke-linejoin="round"/>
<path d="M6.33135 25.0819V22.3645C6.33135 22.2924 6.30272 22.2233 6.25176 22.1724C6.2008 22.1214 6.13168 22.0928 6.05961 22.0928H5.2444C5.17233 22.0928 5.10321 22.1214 5.05225 22.1724C5.00129 22.2233 4.97266 22.2924 4.97266 22.3645V25.0819" stroke="white" stroke-width="0.326087" stroke-linecap="round" stroke-linejoin="round"/>
<path d="M36.3848 16.4404H33.3956C33.3206 16.4404 33.2598 16.5013 33.2598 16.5763V18.7502C33.2598 18.8253 33.3206 18.8861 33.3956 18.8861H36.3848C36.4598 18.8861 36.5206 18.8253 36.5206 18.7502V16.5763C36.5206 16.5013 36.4598 16.4404 36.3848 16.4404Z" stroke="white" stroke-width="0.326087" stroke-linecap="round" stroke-linejoin="round"/>
<path d="M35.5696 18.8866V16.1692C35.5696 16.0971 35.541 16.028 35.49 15.9771C35.4391 15.9261 35.37 15.8975 35.2979 15.8975H34.4827C34.4106 15.8975 34.3415 15.9261 34.2905 15.9771C34.2396 16.028 34.2109 16.0971 34.2109 16.1692V18.8866" stroke="white" stroke-width="0.326087" stroke-linecap="round" stroke-linejoin="round"/>
<path d="M28.3295 5.24414H25.5849C25.5515 5.2443 25.5193 5.25662 25.4943 5.27882C25.4693 5.30101 25.4532 5.33155 25.4491 5.36472L25.2079 7.53864C25.2057 7.55758 25.2076 7.57676 25.2134 7.59493C25.2191 7.61311 25.2286 7.62987 25.2413 7.64412C25.2539 7.65838 25.2695 7.66981 25.2868 7.67768C25.3042 7.68555 25.323 7.68968 25.3421 7.68979H28.5724C28.5914 7.68968 28.6102 7.68555 28.6276 7.67768C28.645 7.66981 28.6605 7.65838 28.6731 7.64412C28.6858 7.62987 28.6953 7.61311 28.7011 7.59493C28.7068 7.57676 28.7087 7.55758 28.7065 7.53864L28.4654 5.36472C28.4612 5.33155 28.4452 5.30101 28.4202 5.27882C28.3952 5.25662 28.3629 5.2443 28.3295 5.24414V5.24414Z" stroke="white" stroke-width="0.326087" stroke-linecap="round" stroke-linejoin="round"/>
<path d="M26.2773 5.78826V5.24478C26.2773 5.0646 26.3489 4.89181 26.4763 4.76441C26.6037 4.637 26.7765 4.56543 26.9567 4.56543C27.1369 4.56543 27.3097 4.637 27.4371 4.76441C27.5645 4.89181 27.636 5.0646 27.636 5.24478V5.78826" stroke="white" stroke-width="0.326087" stroke-linecap="round" stroke-linejoin="round"/>
<path d="M34.336 28.4113C34.2904 28.3599 34.2344 28.3188 34.1716 28.2906C34.1089 28.2625 34.0408 28.2479 33.9719 28.2479H33.0705V28.041C33.0703 27.8398 32.9898 27.647 32.8469 27.5047C32.7039 27.3625 32.51 27.2825 32.3078 27.2822C32.2691 27.2822 32.2313 27.2929 32.1984 27.3131C32.1656 27.3333 32.139 27.3622 32.1217 27.3966L31.4857 28.6618H30.7823C30.6903 28.6618 30.6021 28.6982 30.5371 28.7628C30.4721 28.8275 30.4355 28.9153 30.4355 29.0067V30.5243C30.4355 30.6158 30.4721 30.7035 30.5371 30.7682C30.6021 30.8328 30.6903 30.8692 30.7823 30.8692H33.7639C33.8822 30.8692 33.9964 30.8262 34.0851 30.7483C34.1738 30.6704 34.2308 30.5629 34.2455 30.4462L34.4535 28.7906C34.4621 28.7227 34.456 28.6538 34.4358 28.5884C34.4155 28.523 34.3815 28.4626 34.336 28.4113ZM30.8516 29.0757H31.4063V30.4553H30.8516V29.0757ZM34.0413 28.7394L33.8333 30.3949C33.8311 30.4117 33.8229 30.4271 33.8101 30.4382C33.7973 30.4494 33.7809 30.4554 33.7639 30.4553H31.8224V28.9176L32.426 27.7168C32.4929 27.741 32.5508 27.785 32.5916 27.843C32.6325 27.901 32.6545 27.9702 32.6545 28.041V28.4549C32.6545 28.5098 32.6764 28.5624 32.7154 28.6012C32.7544 28.64 32.8073 28.6618 32.8625 28.6618H33.9719C33.9818 28.6617 33.9916 28.6638 34.0006 28.6678C34.0097 28.6718 34.0177 28.6776 34.0243 28.685C34.0309 28.6923 34.0358 28.701 34.0387 28.7104C34.0416 28.7198 34.0425 28.7297 34.0413 28.7394Z" fill="white"/>
<path d="M18.6406 4.7627V5.92438C18.6406 5.96041 18.6549 5.99497 18.6804 6.02045C18.7059 6.04593 18.7405 6.06025 18.7765 6.06025H21.2221C21.2582 6.06025 21.2927 6.04593 21.3182 6.02045C21.3437 5.99497 21.358 5.96041 21.358 5.92438V4.7627" stroke="white" stroke-width="0.326087" stroke-linecap="round" stroke-linejoin="round"/>
<path d="M18.7428 3.07129H21.2564C21.2858 3.07153 21.3145 3.08124 21.338 3.09897C21.3615 3.1167 21.3788 3.14153 21.3871 3.16979L21.63 4.02238H18.3691L18.612 3.16979C18.6204 3.14153 18.6376 3.1167 18.6611 3.09897C18.6847 3.08124 18.7133 3.07153 18.7428 3.07129V3.07129Z" stroke="white" stroke-width="0.326087" stroke-linecap="round" stroke-linejoin="round"/>
<path d="M19.4561 4.02246V4.2942C19.4561 4.43834 19.3988 4.57658 19.2969 4.6785C19.195 4.78042 19.0568 4.83768 18.9126 4.83768C18.7685 4.83768 18.6302 4.78042 18.5283 4.6785C18.4264 4.57658 18.3691 4.43834 18.3691 4.2942V4.02246" stroke="white" stroke-width="0.326087" stroke-linecap="round" stroke-linejoin="round"/>
<path d="M20.544 4.02246V4.2942C20.544 4.43834 20.4867 4.57658 20.3848 4.6785C20.2829 4.78042 20.1446 4.83768 20.0005 4.83768C19.8564 4.83768 19.7181 4.78042 19.6162 4.6785C19.5143 4.57658 19.457 4.43834 19.457 4.2942V4.02246" stroke="white" stroke-width="0.326087" stroke-linecap="round" stroke-linejoin="round"/>
<path d="M21.6299 4.02246V4.2942C21.6299 4.43834 21.5727 4.57658 21.4707 4.6785C21.3688 4.78042 21.2306 4.83768 21.0864 4.83768C20.9423 4.83768 20.8041 4.78042 20.7021 4.6785C20.6002 4.57658 20.543 4.43834 20.543 4.2942V4.02246" stroke="white" stroke-width="0.326087" stroke-linecap="round" stroke-linejoin="round"/>
<path d="M26.7388 33.7227C27.0389 33.7227 27.2823 33.4794 27.2823 33.1792C27.2823 32.8791 27.0389 32.6357 26.7388 32.6357C26.4386 32.6357 26.1953 32.8791 26.1953 33.1792C26.1953 33.4794 26.4386 33.7227 26.7388 33.7227Z" stroke="white" stroke-width="0.326087" stroke-linecap="round" stroke-linejoin="round"/>
<path d="M28.0963 33.179C28.0963 34.4018 26.7376 35.3529 26.7376 35.3529C26.7376 35.3529 25.3789 34.4018 25.3789 33.179C25.3789 32.8187 25.5221 32.4731 25.7769 32.2183C26.0317 31.9635 26.3773 31.8203 26.7376 31.8203C27.098 31.8203 27.4435 31.9635 27.6983 32.2183C27.9531 32.4731 28.0963 32.8187 28.0963 33.179V33.179Z" stroke="white" stroke-width="0.326087" stroke-linecap="round" stroke-linejoin="round"/>
<path d="M4.02917 16.0501L5.02441 18.9254C5.06687 19.0494 5.2435 19.046 5.28257 18.9203L5.68338 17.6194C5.68943 17.5981 5.70091 17.5788 5.71669 17.5633C5.73248 17.5478 5.75202 17.5367 5.7734 17.531L7.07265 17.1302C7.19833 17.0912 7.20172 16.9145 7.07774 16.8721L4.2024 15.8768C4.17825 15.8683 4.15218 15.8668 4.12721 15.8725C4.10224 15.8782 4.07939 15.8908 4.06128 15.9089C4.04317 15.927 4.03055 15.9499 4.02487 15.9749C4.01919 15.9998 4.02068 16.0259 4.02917 16.0501V16.0501Z" stroke="white" stroke-width="0.326087" stroke-linecap="round" stroke-linejoin="round"/>
<path d="M13.6423 31.7666H10.9249C10.8499 31.7666 10.7891 31.8274 10.7891 31.9025V34.6199C10.7891 34.6949 10.8499 34.7557 10.9249 34.7557H13.6423C13.7174 34.7557 13.7782 34.6949 13.7782 34.6199V31.9025C13.7782 31.8274 13.7174 31.7666 13.6423 31.7666Z" stroke="white" stroke-width="0.326087" stroke-linecap="round" stroke-linejoin="round"/>
<path d="M13.7782 33.8039L13.0598 33.0855C13.0471 33.0726 13.0321 33.0624 13.0155 33.0555C12.9988 33.0485 12.981 33.0449 12.963 33.0449C12.945 33.0449 12.9271 33.0485 12.9105 33.0555C12.8939 33.0624 12.8788 33.0726 12.8662 33.0855L12.1087 33.8429C12.0961 33.8558 12.081 33.866 12.0644 33.8729C12.0477 33.8799 12.0299 33.8835 12.0119 33.8835C11.9939 33.8835 11.976 33.8799 11.9594 33.8729C11.9428 33.866 11.9277 33.8558 11.9151 33.8429L11.5652 33.4931C11.5526 33.4802 11.5375 33.47 11.5209 33.4631C11.5043 33.4561 11.4864 33.4525 11.4684 33.4525C11.4504 33.4525 11.4326 33.4561 11.4159 33.4631C11.3993 33.47 11.3842 33.4802 11.3716 33.4931L10.7891 34.0756" stroke="white" stroke-width="0.326087" stroke-linecap="round" stroke-linejoin="round"/>
<path d="M9.98833 10.2599C9.94276 10.2085 9.88674 10.1674 9.82397 10.1393C9.76121 10.1111 9.69314 10.0966 9.62429 10.0966H8.72285V9.88964C8.72262 9.68847 8.64219 9.4956 8.49919 9.35335C8.3562 9.2111 8.16232 9.13109 7.9601 9.13086C7.92148 9.13086 7.88363 9.14156 7.85078 9.16175C7.81793 9.18195 7.79137 9.21084 7.77409 9.24519L7.13806 10.5105H6.4346C6.34264 10.5105 6.25446 10.5468 6.18944 10.6115C6.12442 10.6762 6.08789 10.7639 6.08789 10.8554V12.3729C6.08789 12.4644 6.12442 12.5521 6.18944 12.6168C6.25446 12.6815 6.34264 12.7178 6.4346 12.7178H9.41626C9.53457 12.7178 9.64879 12.6748 9.73747 12.5969C9.82615 12.519 9.88318 12.4116 9.89784 12.2948L10.1059 10.6393C10.1144 10.5714 10.1084 10.5024 10.0881 10.437C10.0678 10.3716 10.0338 10.3112 9.98833 10.2599ZM6.50394 10.9243H7.05867V12.3039H6.50394V10.9243ZM9.69363 10.5881L9.4856 12.2436C9.48348 12.2603 9.47525 12.2757 9.46247 12.2869C9.44969 12.298 9.43325 12.3041 9.41626 12.3039H7.47471V10.7662L8.07833 9.56543C8.14527 9.58959 8.20311 9.63367 8.24399 9.69167C8.28487 9.74968 8.3068 9.8188 8.30681 9.88964V10.3035C8.30681 10.3584 8.32872 10.411 8.36773 10.4498C8.40675 10.4887 8.45966 10.5105 8.51483 10.5105H9.62429C9.63417 10.5104 9.64396 10.5124 9.65299 10.5164C9.66202 10.5204 9.67009 10.5263 9.67666 10.5336C9.68322 10.541 9.68813 10.5496 9.69106 10.559C9.69399 10.5684 9.69486 10.5783 9.69363 10.5881Z" fill="white"/>
<path d="M32.064 13.0441C32.9645 13.0441 33.6945 12.3141 33.6945 11.4136C33.6945 10.5132 32.9645 9.7832 32.064 9.7832C31.1636 9.7832 30.4336 10.5132 30.4336 11.4136C30.4336 12.3141 31.1636 13.0441 32.064 13.0441Z" stroke="white" stroke-width="0.326087" stroke-linecap="round" stroke-linejoin="round"/>
<path d="M32.4727 11.0732H32.8803" stroke="white" stroke-width="0.326087" stroke-linecap="round" stroke-linejoin="round"/>
<path d="M32.7705 11.8203C32.6986 11.9441 32.5956 12.0468 32.4716 12.1182C32.3476 12.1896 32.207 12.2271 32.0639 12.2271C31.9209 12.2271 31.7803 12.1896 31.6563 12.1182C31.5323 12.0468 31.4292 11.9441 31.3574 11.8203" stroke="white" stroke-width="0.326087" stroke-linecap="round" stroke-linejoin="round"/>
<circle cx="19.9991" cy="20" r="11.087" fill="white"/>
<path d="M14.4485 21.6199V22.2822H11.8601V21.7218L13.0524 20.4684C13.1577 20.3478 13.2426 20.2399 13.3072 20.1448C13.3717 20.048 13.4184 19.9606 13.4473 19.8824C13.4778 19.8043 13.4931 19.7338 13.4931 19.671C13.4931 19.564 13.477 19.4748 13.4447 19.4035C13.4141 19.3305 13.3683 19.2753 13.3072 19.2379C13.2477 19.2005 13.1738 19.1819 13.0855 19.1819C12.9972 19.1819 12.9199 19.2073 12.8537 19.2583C12.7874 19.3092 12.7356 19.3789 12.6983 19.4672C12.6626 19.5555 12.6448 19.6548 12.6448 19.7652H11.7837C11.7837 19.5377 11.8389 19.3296 11.9493 19.1411C12.0614 18.9526 12.2168 18.8023 12.4155 18.6902C12.6142 18.5764 12.8443 18.5195 13.1059 18.5195C13.3793 18.5195 13.6086 18.5619 13.7937 18.6469C13.9789 18.7318 14.1181 18.8549 14.2115 19.0163C14.3066 19.1759 14.3542 19.3687 14.3542 19.5946C14.3542 19.7236 14.3338 19.8476 14.2931 19.9665C14.2523 20.0854 14.1937 20.2034 14.1173 20.3206C14.0408 20.4361 13.9474 20.555 13.837 20.6773C13.7283 20.7995 13.6044 20.9295 13.4651 21.067L12.9862 21.6199H14.4485ZM17.9743 20.3002V21.8237C17.9114 21.8933 17.8146 21.968 17.6838 22.0479C17.5548 22.126 17.3917 22.1931 17.1947 22.2491C16.9977 22.3052 16.7659 22.3332 16.4992 22.3332C16.253 22.3332 16.0296 22.2941 15.8292 22.216C15.6288 22.1362 15.4564 22.0198 15.3121 21.867C15.1694 21.7124 15.059 21.5239 14.9809 21.3014C14.9045 21.0772 14.8663 20.8208 14.8663 20.5321V20.3257C14.8663 20.037 14.9053 19.7805 14.9834 19.5563C15.0616 19.3322 15.1711 19.1436 15.3121 18.9908C15.4547 18.8362 15.622 18.719 15.8139 18.6392C16.0076 18.5594 16.2199 18.5195 16.4508 18.5195C16.7922 18.5195 17.0699 18.5738 17.2839 18.6825C17.4979 18.7895 17.6601 18.9381 17.7705 19.1284C17.8809 19.3169 17.9479 19.5351 17.9717 19.7831H17.1132C17.0962 19.6608 17.0639 19.5572 17.0164 19.4723C16.9705 19.3857 16.9043 19.3203 16.8177 19.2761C16.7311 19.2303 16.619 19.2073 16.4814 19.2073C16.3744 19.2073 16.2767 19.2303 16.1884 19.2761C16.1018 19.322 16.0279 19.3916 15.9668 19.485C15.9057 19.5767 15.8581 19.6922 15.8241 19.8315C15.7919 19.9707 15.7757 20.1338 15.7757 20.3206V20.5321C15.7757 20.7172 15.791 20.8794 15.8216 21.0186C15.8539 21.1579 15.9014 21.2742 15.9642 21.3677C16.0288 21.4594 16.1103 21.529 16.2088 21.5766C16.309 21.6224 16.4271 21.6453 16.5629 21.6453C16.658 21.6453 16.7396 21.6377 16.8075 21.6224C16.8754 21.6054 16.9315 21.585 16.9756 21.5613C17.0215 21.5358 17.0563 21.512 17.0801 21.4899V20.9142H16.4585V20.3002H17.9743ZM21.0492 21.5944V22.2822H19.0723V21.5944H21.0492ZM19.3907 18.573V22.2822H18.4965V18.573H19.3907ZM20.7944 20.0455V20.7104H19.0723V20.0455H20.7944ZM21.0568 18.573V19.2634H19.0723V18.573H21.0568ZM22.621 22.2822H21.7981L21.8032 21.5944H22.621C22.7908 21.5944 22.9344 21.5536 23.0515 21.4721C23.1704 21.3906 23.2604 21.2691 23.3216 21.1078C23.3844 20.9448 23.4158 20.7444 23.4158 20.5066V20.3461C23.4158 20.1678 23.398 20.0115 23.3623 19.8773C23.3284 19.7415 23.2774 19.6285 23.2095 19.5385C23.1416 19.4468 23.0566 19.378 22.9547 19.3322C22.8545 19.2863 22.739 19.2634 22.6083 19.2634H21.7829V18.573H22.6083C22.8596 18.573 23.0898 18.6163 23.2987 18.7029C23.5093 18.7878 23.691 18.9101 23.8438 19.0698C23.9984 19.2277 24.1173 19.4154 24.2005 19.6328C24.2854 19.8485 24.3279 20.0879 24.3279 20.3512V20.5066C24.3279 20.7681 24.2854 21.0076 24.2005 21.225C24.1173 21.4424 23.9992 21.6301 23.8464 21.788C23.6935 21.9459 23.5127 22.0682 23.3038 22.1548C23.0966 22.2398 22.869 22.2822 22.621 22.2822ZM22.3102 18.573V22.2822H21.416V18.573H22.3102ZM26.3099 19.3525L25.4055 22.2822H24.4451L25.808 18.573H26.4169L26.3099 19.3525ZM27.0588 22.2822L26.1519 19.3525L26.0347 18.573H26.6512L28.0218 22.2822H27.0588ZM27.0232 20.8989V21.5893H25.1202V20.8989H27.0232Z" fill="black"/>
<circle cx="20" cy="20" r="19.5652" stroke="white" stroke-width="0.869565"/>
<path d="M8.1411 27.6084C7.8399 27.6084 7.57258 27.7291 7.39147 27.9365C7.21036 27.7291 6.94305 27.6084 6.64185 27.6084C6.37951 27.6087 6.12801 27.7146 5.94251 27.9029C5.75701 28.0912 5.65266 28.3465 5.65234 28.6127C5.65234 29.7135 7.2387 30.5931 7.30617 30.63C7.33238 30.6444 7.3617 30.6519 7.39147 30.6519C7.42125 30.6519 7.45056 30.6444 7.47678 30.63C7.54425 30.5931 9.1306 29.7135 9.1306 28.6127C9.13029 28.3465 9.02593 28.0912 8.84043 27.9029C8.65494 27.7146 8.40343 27.6087 8.1411 27.6084ZM8.05879 29.7747C7.84999 29.9545 7.62677 30.1164 7.39147 30.2586C7.15617 30.1164 6.93296 29.9545 6.72416 29.7747C6.39927 29.4918 6.01216 29.0604 6.01216 28.6127C6.01216 28.4432 6.07851 28.2807 6.19659 28.1608C6.31468 28.0409 6.47485 27.9736 6.64185 27.9736C6.90872 27.9736 7.1321 28.1166 7.22491 28.347C7.23841 28.3806 7.26147 28.4094 7.29114 28.4296C7.3208 28.4498 7.35573 28.4606 7.39147 28.4606C7.42721 28.4606 7.46214 28.4498 7.49181 28.4296C7.52148 28.4094 7.54453 28.3806 7.55804 28.347C7.65084 28.1166 7.87423 27.9736 8.1411 27.9736C8.3081 27.9736 8.46827 28.0409 8.58635 28.1608C8.70444 28.2807 8.77078 28.4432 8.77078 28.6127C8.77078 29.0604 8.38368 29.4918 8.05879 29.7747Z" fill="white"/>
<g clip-path="url(#clip0_3664_21172)">
<path d="M14.1196 4.67383C13.8184 4.67383 13.5511 4.7945 13.37 5.00191C13.1889 4.7945 12.9216 4.67383 12.6204 4.67383C12.358 4.67415 12.1065 4.78007 11.921 4.96834C11.7355 5.15662 11.6312 5.41189 11.6309 5.67815C11.6309 6.77895 13.2172 7.6585 13.2847 7.69547C13.3109 7.7098 13.3402 7.71731 13.37 7.71731C13.3998 7.71731 13.4291 7.7098 13.4553 7.69547C13.5228 7.6585 15.1091 6.77895 15.1091 5.67815C15.1088 5.41189 15.0044 5.15662 14.819 4.96834C14.6335 4.78007 14.382 4.67415 14.1196 4.67383ZM14.0373 6.84012C13.8285 7.01996 13.6053 7.18183 13.37 7.32403C13.1347 7.18183 12.9115 7.01996 12.7027 6.84012C12.3778 6.55724 11.9907 6.12584 11.9907 5.67815C11.9907 5.50865 12.057 5.34609 12.1751 5.22623C12.2932 5.10637 12.4534 5.03904 12.6204 5.03904C12.8872 5.03904 13.1106 5.18208 13.2034 5.41246C13.2169 5.44605 13.24 5.47479 13.2697 5.49502C13.2993 5.51525 13.3342 5.52605 13.37 5.52605C13.4057 5.52605 13.4407 5.51525 13.4703 5.49502C13.5 5.47479 13.523 5.44605 13.5366 5.41246C13.6294 5.18208 13.8527 5.03904 14.1196 5.03904C14.2866 5.03904 14.4468 5.10637 14.5649 5.22623C14.683 5.34609 14.7493 5.50865 14.7493 5.67815C14.7493 6.12584 14.3622 6.55724 14.0373 6.84012Z" fill="white"/>
</g>
<defs>
<clipPath id="clip0_3664_21172">
<rect width="3.69565" height="3.69565" fill="white" transform="translate(11.5215 4.34766)"/>
</clipPath>
</defs>
</svg>
